<?xml version="1.0" encoding="UTF-8" standalone="no"?>
<svg width="32" height="32" viewBox="0 0 32 32" xmlns="http://www.w3.org/2000/svg">
  <!-- Background gradient -->
  <defs>
    <linearGradient id="grad" x1="0%" y1="0%" x2="100%" y2="100%">
      <stop offset="0%" style="stop-color:#4a90e2;stop-opacity:1" />
      <stop offset="100%" style="stop-color:#2c3e50;stop-opacity:1" />
    </linearGradient>
  </defs>
  
  <!-- Background circle -->
  <circle cx="16" cy="16" r="15" fill="url(#grad)" />
  
  <!-- Stylized 'S' -->
  <path d="M20.5 11c0-2.5-2-4-5-4s-5 1.5-5 4c0 2 1.5 3 4 3.5l2 .5c1.5.3 2 1 2 2 0 1.3-1.3 2-3 2s-3-.7-3-2h-3c0 2.5 2 4 6 4s6-1.5 6-4c0-2-1.5-3-4-3.5l-2-.5c-1.5-.3-2-1-2-2 0-1.3 1.3-2 2.5-2s2.5.7 2.5 2z" 
        fill="white"/>
</svg> 