<?xml version="1.0" encoding="UTF-8"?>
<svg width="512" height="512" viewBox="0 0 512 512" fill="none" xmlns="http://www.w3.org/2000/svg">
  <!-- Background Circle -->
  <circle cx="256" cy="256" r="256" fill="#246a59"/>
  
  <!-- Book Pages -->
  <path d="M156 176C156 164.954 164.954 156 176 156H336C347.046 156 356 164.954 356 176V336C356 347.046 347.046 356 336 356H176C164.954 356 156 347.046 156 336V176Z" fill="white"/>
  
  <!-- Book Spine Shadow -->
  <path d="M156 176C156 164.954 164.954 156 176 156H196V356H176C164.954 356 156 347.046 156 336V176Z" fill="#E5E7EB"/>
  
  <!-- Lines representing text -->
  <rect x="216" y="196" width="120" height="8" rx="4" fill="#246a59" fill-opacity="0.2"/>
  <rect x="216" y="226" width="100" height="8" rx="4" fill="#246a59" fill-opacity="0.2"/>
  <rect x="216" y="256" width="80" height="8" rx="4" fill="#246a59" fill-opacity="0.2"/>
  
  <!-- Graduation Cap -->
  <path d="M256 136L336 176L256 216L176 176L256 136Z" fill="#E5E7EB"/>
  <path d="M236 196V246L256 256L276 246V196L256 206L236 196Z" fill="#E5E7EB"/>
  <circle cx="256" cy="176" r="10" fill="#246a59"/>
</svg> 